<svg width="800" height="400" viewBox="0 0 800 400" xmlns="http://www.w3.org/2000/svg"><rect x="0" y="0" width="800" height="400" fill="white"/><rect x="42" y="42" width="24" height="24" fill="black"/><path fill="white" d="M56.3 47.3L58.7 47.3L58.7 59.0L56.6 59.0L51.6 51.7L51.5 51.7L51.5 59.0L49.0 59.0L49.0 47.3L51.2 47.3L56.2 54.7L56.3 54.7L56.3 47.3Z "/><path fill="black" d="M78.2 54.4L78.2 54.4L78.2 60.7L75.2 60.7L75.2 49.8L78.1 49.8L78.1 51.7L78.2 51.7Q78.6 50.8 79.4 50.2Q80.3 49.7 81.5 49.7L81.5 49.7Q82.6 49.7 83.5 50.2Q84.3 50.7 84.8 51.6Q85.3 52.5 85.3 53.8L85.3 53.8L85.3 60.7L82.2 60.7L82.2 54.3Q82.2 53.3 81.7 52.7Q81.2 52.2 80.3 52.2L80.3 52.2Q79.7 52.2 79.2 52.4Q78.8 52.7 78.5 53.2Q78.2 53.7 78.2 54.4ZM90.4 60.9L90.4 60.9Q89.4 60.9 88.6 60.6Q87.8 60.2 87.3 59.5Q86.8 58.8 86.8 57.7L86.8 57.7Q86.8 56.8 87.1 56.1Q87.5 55.5 88.1 55.2Q88.6 54.8 89.4 54.6Q90.1 54.4 90.9 54.3L90.9 54.3Q91.9 54.2 92.4 54.1Q93.0 54.0 93.3 53.9Q93.6 53.7 93.6 53.3L93.6 53.3L93.6 53.3Q93.6 52.6 93.1 52.2Q92.7 51.9 91.9 51.9L91.9 51.9Q91.1 51.9 90.6 52.2Q90.2 52.6 90.0 53.1L90.0 53.1L87.2 52.9Q87.4 51.9 88.0 51.2Q88.7 50.5 89.6 50.1Q90.6 49.7 91.9 49.7L91.9 49.7Q92.9 49.7 93.7 49.9Q94.5 50.1 95.2 50.5Q95.8 51.0 96.2 51.7Q96.6 52.4 96.6 53.4L96.6 53.4L96.6 60.7L93.7 60.7L93.7 59.2L93.6 59.2Q93.4 59.7 92.9 60.1Q92.5 60.5 91.9 60.7Q91.2 60.9 90.4 60.9ZM91.3 58.8L91.3 58.8Q92.0 58.8 92.5 58.6Q93.0 58.3 93.3 57.9Q93.6 57.4 93.6 56.8L93.6 56.8L93.6 55.7Q93.4 55.8 93.2 55.8Q92.9 55.9 92.6 56.0Q92.3 56.0 92.0 56.1Q91.7 56.1 91.5 56.2L91.5 56.2Q90.9 56.2 90.5 56.4Q90.1 56.6 89.9 56.9Q89.7 57.1 89.7 57.6L89.7 57.6Q89.7 58.2 90.2 58.5Q90.6 58.8 91.3 58.8ZM105.2 49.8L108.4 49.8L104.6 60.7L101.2 60.7L97.3 49.8L100.5 49.8L102.8 57.6L102.9 57.6L105.2 49.8ZM112.4 60.9L112.4 60.9Q111.4 60.9 110.6 60.6Q109.7 60.2 109.3 59.5Q108.8 58.8 108.8 57.7L108.8 57.7Q108.8 56.8 109.1 56.1Q109.5 55.5 110.0 55.2Q110.6 54.8 111.3 54.6Q112.1 54.4 112.9 54.3L112.9 54.3Q113.8 54.2 114.4 54.1Q115.0 54.0 115.3 53.9Q115.5 53.7 115.5 53.3L115.5 53.3L115.5 53.3Q115.5 52.6 115.1 52.2Q114.7 51.9 113.9 51.9L113.9 51.9Q113.1 51.9 112.6 52.2Q112.1 52.6 112.0 53.1L112.0 53.1L109.2 52.9Q109.4 51.9 110.0 51.2Q110.6 50.5 111.6 50.1Q112.6 49.7 113.9 49.7L113.9 49.7Q114.8 49.7 115.7 49.9Q116.5 50.1 117.2 50.5Q117.8 51.0 118.2 51.7Q118.6 52.4 118.6 53.4L118.6 53.4L118.6 60.7L115.7 60.7L115.7 59.2L115.6 59.2Q115.3 59.7 114.9 60.1Q114.5 60.5 113.8 60.7Q113.2 60.9 112.4 60.9ZM113.3 58.8L113.3 58.8Q113.9 58.8 114.5 58.6Q115.0 58.3 115.3 57.9Q115.6 57.4 115.6 56.8L115.6 56.8L115.6 55.7Q115.4 55.8 115.2 55.8Q114.9 55.9 114.6 56.0Q114.3 56.0 114.0 56.1Q113.7 56.1 113.5 56.2L113.5 56.2Q112.9 56.2 112.5 56.4Q112.1 56.6 111.9 56.9Q111.7 57.1 111.7 57.6L111.7 57.6Q111.7 58.2 112.1 58.5Q112.6 58.8 113.3 58.8ZM120.6 46.2L123.6 46.2L123.6 60.7L120.6 60.7L120.6 46.2ZM128.7 60.7L125.7 60.7L125.7 49.8L128.6 49.8L128.6 51.7L128.7 51.7Q129.1 50.8 129.9 50.2Q130.7 49.7 131.8 49.7L131.8 49.7Q132.9 49.7 133.7 50.2Q134.5 50.8 134.7 51.7L134.7 51.7L134.8 51.7Q135.2 50.8 136.0 50.2Q136.9 49.7 138.1 49.7L138.1 49.7Q139.7 49.7 140.6 50.6Q141.6 51.6 141.6 53.4L141.6 53.4L141.6 60.7L138.5 60.7L138.5 54.0Q138.5 53.1 138.1 52.6Q137.6 52.2 136.9 52.2L136.9 52.2Q136.0 52.2 135.6 52.7Q135.1 53.2 135.1 54.1L135.1 54.1L135.1 60.7L132.2 60.7L132.2 53.9Q132.2 53.1 131.7 52.6Q131.3 52.2 130.5 52.2L130.5 52.2Q130.0 52.2 129.6 52.4Q129.2 52.7 129.0 53.1Q128.7 53.6 128.7 54.2L128.7 54.2L128.7 60.7ZM146.7 60.9L146.7 60.9Q145.7 60.9 144.9 60.6Q144.1 60.2 143.6 59.5Q143.1 58.8 143.1 57.7L143.1 57.7Q143.1 56.8 143.5 56.1Q143.8 55.5 144.4 55.2Q144.9 54.8 145.7 54.6Q146.4 54.4 147.2 54.3L147.2 54.3Q148.2 54.2 148.7 54.1Q149.3 54.0 149.6 53.9Q149.9 53.7 149.9 53.3L149.9 53.3L149.9 53.3Q149.9 52.6 149.4 52.2Q149.0 51.9 148.2 51.9L148.2 51.9Q147.4 51.9 146.9 52.2Q146.5 52.6 146.3 53.1L146.3 53.1L143.5 52.9Q143.7 51.9 144.3 51.2Q145.0 50.5 146.0 50.1Q146.9 49.7 148.3 49.7L148.3 49.7Q149.2 49.7 150.0 49.9Q150.8 50.1 151.5 50.5Q152.1 51.0 152.5 51.7Q152.9 52.4 152.9 53.4L152.9 53.4L152.9 60.7L150.0 60.7L150.0 59.2L149.9 59.2Q149.7 59.7 149.2 60.1Q148.8 60.5 148.2 60.7Q147.5 60.9 146.7 60.9ZM147.6 58.8L147.6 58.8Q148.3 58.8 148.8 58.6Q149.3 58.3 149.6 57.9Q149.9 57.4 149.9 56.8L149.9 56.8L149.9 55.7Q149.7 55.8 149.5 55.8Q149.2 55.9 148.9 56.0Q148.6 56.0 148.3 56.1Q148.0 56.1 147.8 56.2L147.8 56.2Q147.2 56.2 146.8 56.4Q146.4 56.6 146.2 56.9Q146.0 57.1 146.0 57.6L146.0 57.6Q146.0 58.2 146.5 58.5Q146.9 58.8 147.6 58.8ZM157.9 54.4L157.9 54.4L157.9 60.7L154.9 60.7L154.9 49.8L157.8 49.8L157.8 51.7L157.9 51.7Q158.3 50.8 159.1 50.2Q160.0 49.7 161.2 49.7L161.2 49.7Q162.3 49.7 163.2 50.2Q164.0 50.7 164.5 51.6Q165.0 52.5 165.0 53.8L165.0 53.8L165.0 60.7L161.9 60.7L161.9 54.3Q162.0 53.3 161.4 52.7Q160.9 52.2 160.0 52.2L160.0 52.2Q159.4 52.2 158.9 52.4Q158.5 52.7 158.2 53.2Q157.9 53.7 157.9 54.4ZM170.1 60.9L170.1 60.9Q169.1 60.9 168.3 60.6Q167.5 60.2 167.0 59.5Q166.5 58.8 166.5 57.7L166.5 57.7Q166.5 56.8 166.9 56.1Q167.2 55.5 167.8 55.2Q168.3 54.8 169.1 54.6Q169.8 54.4 170.6 54.3L170.6 54.3Q171.6 54.2 172.2 54.1Q172.7 54.0 173.0 53.9Q173.3 53.7 173.3 53.3L173.3 53.3L173.3 53.3Q173.3 52.6 172.8 52.2Q172.4 51.9 171.6 51.9L171.6 51.9Q170.8 51.9 170.3 52.2Q169.9 52.6 169.7 53.1L169.7 53.1L166.9 52.9Q167.1 51.9 167.7 51.2Q168.4 50.5 169.4 50.1Q170.3 49.7 171.7 49.7L171.7 49.7Q172.6 49.7 173.4 49.9Q174.2 50.1 174.9 50.5Q175.5 51.0 175.9 51.7Q176.3 52.4 176.3 53.4L176.3 53.4L176.3 60.7L173.4 60.7L173.4 59.2L173.3 59.2Q173.1 59.7 172.6 60.1Q172.2 60.5 171.6 60.7Q170.9 60.9 170.1 60.9ZM171.0 58.8L171.0 58.8Q171.7 58.8 172.2 58.6Q172.7 58.3 173.0 57.9Q173.3 57.4 173.3 56.8L173.3 56.8L173.3 55.7Q173.1 55.8 172.9 55.8Q172.6 55.9 172.3 56.0Q172.0 56.0 171.7 56.1Q171.4 56.1 171.2 56.2L171.2 56.2Q170.6 56.2 170.2 56.4Q169.8 56.6 169.6 56.9Q169.4 57.1 169.4 57.6L169.4 57.6Q169.4 58.2 169.9 58.5Q170.3 58.8 171.0 58.8ZM183.2 60.9L183.2 60.9Q181.6 60.9 180.4 60.2Q179.2 59.5 178.5 58.2Q177.9 57.0 177.9 55.3L177.9 55.3Q177.9 53.6 178.5 52.4Q179.2 51.1 180.4 50.4Q181.6 49.7 183.2 49.7L183.2 49.7Q184.7 49.7 185.7 50.2Q186.8 50.7 187.4 51.6Q188.1 52.6 188.1 53.8L188.1 53.8L185.3 53.8Q185.1 53.0 184.6 52.5Q184.1 52.0 183.3 52.0L183.3 52.0Q182.6 52.0 182.1 52.4Q181.5 52.8 181.2 53.5Q180.9 54.2 180.9 55.3L180.9 55.3Q180.9 56.3 181.2 57.0Q181.5 57.8 182.1 58.2Q182.6 58.5 183.3 58.5L183.3 58.5Q183.8 58.5 184.2 58.3Q184.6 58.1 184.9 57.7Q185.2 57.3 185.3 56.7L185.3 56.7L188.1 56.7Q188.0 58.0 187.4 58.9Q186.8 59.9 185.8 60.4Q184.7 60.9 183.2 60.9ZM191.5 60.9L191.5 60.9Q190.8 60.9 190.3 60.4Q189.8 59.9 189.8 59.2L189.8 59.2Q189.8 58.5 190.3 58.0Q190.8 57.5 191.5 57.5L191.5 57.5Q192.2 57.5 192.7 58.0Q193.2 58.5 193.2 59.2L193.2 59.2Q193.2 59.7 193.0 60.1Q192.7 60.4 192.4 60.7Q192.0 60.9 191.5 60.9ZM198.4 64.8L195.4 64.8L195.4 49.8L198.4 49.8L198.4 51.6L198.5 51.6Q198.7 51.2 199.1 50.7Q199.5 50.3 200.1 50.0Q200.7 49.7 201.6 49.7L201.6 49.7Q202.8 49.7 203.8 50.3Q204.8 50.9 205.4 52.2Q206.0 53.4 206.0 55.3L206.0 55.3Q206.0 57.1 205.4 58.4Q204.8 59.6 203.8 60.3Q202.8 60.9 201.6 60.9L201.6 60.9Q200.7 60.9 200.1 60.6Q199.5 60.3 199.1 59.9Q198.7 59.4 198.5 59.0L198.5 59.0L198.4 59.0L198.4 64.8ZM198.3 55.3L198.3 55.3Q198.3 56.2 198.6 57.0Q198.9 57.7 199.4 58.1Q199.9 58.5 200.6 58.5L200.6 58.5Q201.4 58.5 201.9 58.1Q202.4 57.7 202.7 56.9Q202.9 56.2 202.9 55.3L202.9 55.3Q202.9 54.3 202.7 53.6Q202.4 52.9 201.9 52.5Q201.4 52.1 200.6 52.1L200.6 52.1Q199.9 52.1 199.4 52.5Q198.9 52.9 198.6 53.6Q198.3 54.3 198.3 55.3ZM210.7 60.7L207.7 60.7L207.7 49.8L210.6 49.8L210.6 51.7L210.7 51.7Q211.0 50.7 211.8 50.2Q212.5 49.7 213.4 49.7L213.4 49.7Q213.6 49.7 213.9 49.7Q214.1 49.7 214.3 49.8L214.3 49.8L214.3 52.4Q214.1 52.4 213.7 52.3Q213.4 52.3 213.0 52.3L213.0 52.3Q212.4 52.3 211.9 52.6Q211.3 52.9 211.0 53.4Q210.7 53.9 210.7 54.5L210.7 54.5L210.7 60.7ZM220.0 60.9L220.0 60.9Q218.3 60.9 217.1 60.2Q215.9 59.5 215.3 58.3Q214.6 57.0 214.6 55.3L214.6 55.3Q214.6 53.6 215.3 52.4Q215.9 51.1 217.1 50.4Q218.3 49.7 220.0 49.7L220.0 49.7Q221.6 49.7 222.8 50.4Q224.0 51.1 224.7 52.4Q225.3 53.6 225.3 55.3L225.3 55.3Q225.3 57.0 224.7 58.3Q224.0 59.5 222.8 60.2Q221.6 60.9 220.0 60.9ZM220.0 58.6L220.0 58.6Q220.7 58.6 221.2 58.2Q221.8 57.7 222.0 57.0Q222.3 56.2 222.3 55.3L222.3 55.3Q222.3 54.3 222.0 53.6Q221.8 52.8 221.2 52.4Q220.7 52.0 220.0 52.0L220.0 52.0Q219.2 52.0 218.7 52.4Q218.2 52.8 217.9 53.6Q217.7 54.3 217.7 55.3L217.7 55.3Q217.7 56.2 217.9 57.0Q218.2 57.7 218.7 58.2Q219.2 58.6 220.0 58.6ZM231.9 65.0L231.9 65.0Q230.4 65.0 229.4 64.6Q228.3 64.2 227.7 63.5Q227.1 62.9 226.9 62.0L226.9 62.0L229.7 61.6Q229.9 61.9 230.1 62.2Q230.4 62.5 230.9 62.7Q231.3 62.9 232.0 62.9L232.0 62.9Q233.0 62.9 233.6 62.4Q234.3 61.9 234.3 60.8L234.3 60.8L234.3 58.8L234.1 58.8Q233.9 59.2 233.5 59.6Q233.1 60.1 232.5 60.3Q231.9 60.6 231.0 60.6L231.0 60.6Q229.8 60.6 228.8 60.0Q227.8 59.4 227.2 58.2Q226.6 57.1 226.6 55.2L226.6 55.2Q226.6 53.4 227.2 52.1Q227.8 50.9 228.8 50.3Q229.8 49.7 231.0 49.7L231.0 49.7Q231.9 49.7 232.5 50.0Q233.2 50.3 233.5 50.7Q233.9 51.2 234.1 51.6L234.1 51.6L234.2 51.6L234.2 49.8L237.2 49.8L237.2 60.8Q237.2 62.2 236.6 63.2Q235.9 64.1 234.7 64.6Q233.5 65.0 231.9 65.0ZM232.0 58.3L232.0 58.3Q232.7 58.3 233.2 57.9Q233.7 57.6 234.0 56.9Q234.3 56.2 234.3 55.2L234.3 55.2Q234.3 54.3 234.0 53.6Q233.7 52.9 233.2 52.5Q232.7 52.1 232.0 52.1L232.0 52.1Q231.2 52.1 230.7 52.5Q230.2 52.9 229.9 53.6Q229.7 54.3 229.7 55.2L229.7 55.2Q229.7 56.2 229.9 56.9Q230.2 57.5 230.7 57.9Q231.2 58.3 232.0 58.3ZM242.4 60.7L239.3 60.7L239.3 49.8L242.3 49.8L242.3 51.7L242.4 51.7Q242.7 50.7 243.4 50.2Q244.1 49.7 245.0 49.7L245.0 49.7Q245.2 49.7 245.5 49.7Q245.8 49.7 246.0 49.8L246.0 49.8L246.0 52.4Q245.7 52.4 245.4 52.3Q245.0 52.3 244.7 52.3L244.7 52.3Q244.0 52.3 243.5 52.6Q243.0 52.9 242.7 53.4Q242.4 53.9 242.4 54.5L242.4 54.5L242.4 60.7ZM251.7 60.9L251.7 60.9Q250.0 60.9 248.8 60.2Q247.6 59.6 246.9 58.3Q246.2 57.0 246.2 55.3L246.2 55.3Q246.2 53.6 246.9 52.4Q247.6 51.1 248.7 50.4Q249.9 49.7 251.5 49.7L251.5 49.7Q252.6 49.7 253.5 50.0Q254.5 50.4 255.2 51.0Q255.9 51.7 256.3 52.8Q256.7 53.8 256.7 55.2L256.7 55.2L256.7 56.0L247.5 56.0L247.5 54.2L253.8 54.2Q253.8 53.5 253.5 53.0Q253.2 52.5 252.7 52.2Q252.2 51.9 251.6 51.9L251.6 51.9Q250.9 51.9 250.4 52.2Q249.8 52.6 249.5 53.1Q249.2 53.6 249.2 54.3L249.2 54.3L249.2 56.0Q249.2 56.9 249.5 57.4Q249.8 58.0 250.4 58.4Q250.9 58.7 251.7 58.7L251.7 58.7Q252.2 58.7 252.6 58.5Q253.0 58.4 253.3 58.1Q253.6 57.8 253.8 57.4L253.8 57.4L256.6 57.6Q256.4 58.6 255.7 59.4Q255.1 60.1 254.0 60.5Q253.0 60.9 251.7 60.9ZM261.3 60.7L258.3 60.7L258.3 49.8L261.2 49.8L261.2 51.7L261.3 51.7Q261.7 50.8 262.5 50.2Q263.3 49.7 264.4 49.7L264.4 49.7Q265.5 49.7 266.3 50.2Q267.1 50.8 267.3 51.7L267.3 51.7L267.4 51.7Q267.8 50.8 268.7 50.2Q269.5 49.7 270.7 49.7L270.7 49.7Q272.3 49.7 273.2 50.6Q274.2 51.6 274.2 53.4L274.2 53.4L274.2 60.7L271.2 60.7L271.2 54.0Q271.2 53.1 270.7 52.6Q270.2 52.2 269.5 52.2L269.5 52.2Q268.6 52.2 268.2 52.7Q267.7 53.2 267.7 54.1L267.7 54.1L267.7 60.7L264.8 60.7L264.8 53.9Q264.8 53.1 264.3 52.6Q263.9 52.2 263.1 52.2L263.1 52.2Q262.6 52.2 262.2 52.4Q261.8 52.7 261.6 53.1Q261.3 53.6 261.3 54.2L261.3 54.2L261.3 60.7ZM279.3 60.7L276.2 60.7L276.2 49.8L279.3 49.8L279.3 60.7ZM277.8 48.4L277.8 48.4Q277.1 48.4 276.6 48.0Q276.1 47.5 276.1 46.9L276.1 46.9Q276.1 46.2 276.6 45.8Q277.1 45.3 277.8 45.3L277.8 45.3Q278.4 45.3 278.9 45.8Q279.4 46.2 279.4 46.9L279.4 46.9Q279.4 47.5 278.9 48.0Q278.4 48.4 277.8 48.4ZM284.4 60.7L281.4 60.7L281.4 49.8L284.3 49.8L284.3 51.7L284.4 51.7Q284.7 50.7 285.4 50.2Q286.1 49.7 287.0 49.7L287.0 49.7Q287.3 49.7 287.5 49.7Q287.8 49.7 288.0 49.8L288.0 49.8L288.0 52.4Q287.8 52.4 287.4 52.3Q287.0 52.3 286.7 52.3L286.7 52.3Q286.0 52.3 285.5 52.6Q285.0 52.9 284.7 53.4Q284.4 53.9 284.4 54.5L284.4 54.5L284.4 60.7ZM289.7 60.9L289.7 60.9Q289.0 60.9 288.5 60.4Q288.0 59.9 288.0 59.2L288.0 59.2Q288.0 58.5 288.5 58.0Q289.0 57.5 289.7 57.5L289.7 57.5Q290.4 57.5 290.9 58.0Q291.4 58.5 291.4 59.2L291.4 59.2Q291.4 59.7 291.2 60.1Q291.0 60.4 290.6 60.7Q290.2 60.9 289.7 60.9ZM297.6 60.9L297.6 60.9Q296.4 60.9 295.4 60.3Q294.4 59.6 293.8 58.4Q293.2 57.1 293.2 55.3L293.2 55.3Q293.2 53.4 293.8 52.2Q294.4 50.9 295.4 50.3Q296.4 49.7 297.6 49.7L297.6 49.7Q298.5 49.7 299.1 50.0Q299.8 50.3 300.1 50.7Q300.5 51.2 300.7 51.6L300.7 51.6L300.8 51.6L300.8 46.2L303.8 46.2L303.8 60.7L300.8 60.7L300.8 59.0L300.7 59.0Q300.5 59.4 300.1 59.9Q299.7 60.3 299.1 60.6Q298.5 60.9 297.6 60.9ZM298.6 58.5L298.6 58.5Q299.3 58.5 299.8 58.1Q300.3 57.7 300.6 57.0Q300.9 56.2 300.9 55.3L300.9 55.3Q300.9 54.3 300.6 53.6Q300.3 52.9 299.8 52.5Q299.3 52.1 298.6 52.1L298.6 52.1Q297.8 52.1 297.3 52.5Q296.8 52.9 296.5 53.6Q296.3 54.3 296.3 55.3L296.3 55.3Q296.3 56.2 296.5 56.9Q296.8 57.7 297.3 58.1Q297.8 58.5 298.6 58.5ZM311.0 60.9L311.0 60.9Q309.3 60.9 308.1 60.2Q306.8 59.6 306.2 58.3Q305.5 57.0 305.5 55.3L305.5 55.3Q305.5 53.6 306.2 52.4Q306.8 51.1 308.0 50.4Q309.2 49.7 310.8 49.7L310.8 49.7Q311.9 49.7 312.8 50.0Q313.8 50.4 314.5 51.0Q315.2 51.7 315.6 52.8Q316.0 53.8 316.0 55.2L316.0 55.2L316.0 56.0L306.7 56.0L306.7 54.2L313.1 54.2Q313.1 53.5 312.8 53.0Q312.5 52.5 312.0 52.2Q311.5 51.9 310.9 51.9L310.9 51.9Q310.2 51.9 309.7 52.2Q309.1 52.6 308.8 53.1Q308.5 53.6 308.5 54.3L308.5 54.3L308.5 56.0Q308.5 56.9 308.8 57.4Q309.1 58.0 309.7 58.4Q310.2 58.7 311.0 58.7L311.0 58.7Q311.5 58.7 311.9 58.5Q312.3 58.4 312.6 58.1Q312.9 57.8 313.1 57.4L313.1 57.4L315.9 57.6Q315.7 58.6 315.0 59.4Q314.4 60.1 313.3 60.5Q312.3 60.9 311.0 60.9ZM324.3 49.8L327.5 49.8L323.7 60.7L320.3 60.7L316.4 49.8L319.6 49.8L321.9 57.6L322.0 57.6L324.3 49.8Z "/><rect x="125" y="124" width="550" height="152" fill="black"/><path fill="white" d="M242.6 163.0L235.3 185.5L228.7 185.5L238.7 156.4L246.6 156.4L256.7 185.5L250.1 185.5L242.8 163.0L242.6 163.0ZM234.9 178.8L234.9 174.0L250.4 174.0L250.4 178.8L234.9 178.8ZM259.7 156.4L265.8 156.4L265.8 185.5L259.7 185.5L259.7 156.4ZM276.3 185.5L270.3 185.5L270.3 163.7L276.1 163.7L276.1 167.5L276.3 167.5Q277.0 165.6 278.6 164.5Q280.2 163.4 282.4 163.4L282.4 163.4Q284.6 163.4 286.2 164.5Q287.8 165.6 288.3 167.5L288.3 167.5L288.5 167.5Q289.2 165.6 291.0 164.5Q292.7 163.4 295.1 163.4L295.1 163.4Q298.2 163.4 300.1 165.3Q302.0 167.2 302.0 170.8L302.0 170.8L302.0 185.5L296.0 185.5L296.0 172.0Q296.0 170.2 295.0 169.3Q294.0 168.4 292.6 168.4L292.6 168.4Q290.9 168.4 290.0 169.4Q289.1 170.4 289.1 172.2L289.1 172.2L289.1 185.5L283.2 185.5L283.2 171.9Q283.2 170.3 282.3 169.3Q281.4 168.4 279.9 168.4L279.9 168.4Q278.9 168.4 278.1 168.9Q277.3 169.4 276.8 170.3Q276.3 171.2 276.3 172.4L276.3 172.4L276.3 185.5ZM312.7 185.9L312.7 185.9Q310.6 185.9 308.9 185.2Q307.3 184.4 306.4 183.0Q305.4 181.5 305.4 179.4L305.4 179.4Q305.4 177.6 306.1 176.3Q306.8 175.1 307.9 174.3Q309.1 173.6 310.5 173.2Q312.0 172.8 313.6 172.7L313.6 172.7Q315.5 172.5 316.7 172.3Q317.9 172.1 318.4 171.8Q318.9 171.4 318.9 170.7L318.9 170.7L318.9 170.6Q318.9 169.3 318.1 168.5Q317.2 167.8 315.7 167.8L315.7 167.8Q314.0 167.8 313.1 168.5Q312.1 169.2 311.8 170.3L311.8 170.3L306.2 169.8Q306.6 167.9 307.9 166.4Q309.1 164.9 311.1 164.2Q313.1 163.4 315.7 163.4L315.7 163.4Q317.5 163.4 319.2 163.8Q320.9 164.2 322.2 165.1Q323.5 166.0 324.2 167.4Q325.0 168.8 325.0 170.8L325.0 170.8L325.0 185.5L319.2 185.5L319.2 182.4L319.0 182.4Q318.5 183.5 317.6 184.2Q316.8 185.0 315.5 185.5Q314.3 185.9 312.7 185.9ZM314.4 181.7L314.4 181.7Q315.7 181.7 316.8 181.2Q317.8 180.6 318.4 179.7Q318.9 178.8 318.9 177.7L318.9 177.7L318.9 175.4Q318.7 175.5 318.2 175.7Q317.7 175.8 317.1 176.0Q316.5 176.1 315.9 176.2Q315.2 176.3 314.7 176.3L314.7 176.3Q313.7 176.5 312.9 176.8Q312.1 177.2 311.6 177.8Q311.2 178.3 311.2 179.2L311.2 179.2Q311.2 180.4 312.1 181.1Q313.0 181.7 314.4 181.7ZM335.4 172.9L335.4 172.9L335.4 185.5L329.3 185.5L329.3 163.7L335.1 163.7L335.1 167.5L335.4 167.5Q336.1 165.6 337.8 164.5Q339.5 163.4 341.9 163.4L341.9 163.4Q344.2 163.4 345.9 164.4Q347.6 165.4 348.5 167.2Q349.5 169.0 349.5 171.6L349.5 171.6L349.5 185.5L343.4 185.5L343.4 172.7Q343.4 170.7 342.4 169.5Q341.3 168.4 339.5 168.4L339.5 168.4Q338.3 168.4 337.4 168.9Q336.4 169.5 335.9 170.5Q335.4 171.5 335.4 172.9ZM360.1 185.9L360.1 185.9Q358.0 185.9 356.4 185.2Q354.8 184.4 353.8 183.0Q352.9 181.5 352.9 179.4L352.9 179.4Q352.9 177.6 353.5 176.3Q354.2 175.1 355.4 174.3Q356.5 173.6 358.0 173.2Q359.4 172.8 361.1 172.7L361.1 172.7Q363.0 172.5 364.1 172.3Q365.3 172.1 365.8 171.8Q366.3 171.4 366.3 170.7L366.3 170.7L366.3 170.6Q366.3 169.3 365.5 168.5Q364.7 167.8 363.1 167.8L363.1 167.8Q361.5 167.8 360.5 168.5Q359.5 169.2 359.2 170.3L359.2 170.3L353.6 169.8Q354.1 167.9 355.3 166.4Q356.6 164.9 358.5 164.2Q360.5 163.4 363.1 163.4L363.1 163.4Q365.0 163.4 366.6 163.8Q368.3 164.2 369.6 165.1Q370.9 166.0 371.6 167.4Q372.4 168.8 372.4 170.8L372.4 170.8L372.4 185.5L366.7 185.5L366.7 182.4L366.5 182.4Q366.0 183.5 365.1 184.2Q364.2 185.0 363.0 185.5Q361.7 185.9 360.1 185.9ZM361.8 181.7L361.8 181.7Q363.2 181.7 364.2 181.2Q365.2 180.6 365.8 179.7Q366.4 178.8 366.4 177.7L366.4 177.7L366.4 175.4Q366.1 175.5 365.6 175.7Q365.1 175.8 364.5 176.0Q363.9 176.1 363.3 176.2Q362.7 176.3 362.2 176.3L362.2 176.3Q361.1 176.5 360.3 176.8Q359.5 177.2 359.1 177.8Q358.6 178.3 358.6 179.2L358.6 179.2Q358.6 180.4 359.6 181.1Q360.5 181.7 361.8 181.7ZM386.6 185.9L386.6 185.9Q383.3 185.9 380.9 184.5Q378.5 183.0 377.2 180.5Q375.9 178.0 375.9 174.7L375.9 174.7Q375.9 171.3 377.2 168.8Q378.5 166.2 380.9 164.8Q383.3 163.4 386.6 163.4L386.6 163.4Q389.5 163.4 391.6 164.4Q393.8 165.4 395.0 167.3Q396.3 169.2 396.4 171.7L396.4 171.7L390.7 171.7Q390.4 170.1 389.4 169.1Q388.4 168.1 386.7 168.1L386.7 168.1Q385.3 168.1 384.3 168.8Q383.2 169.6 382.6 171.1Q382.1 172.5 382.1 174.6L382.1 174.6Q382.1 176.7 382.6 178.1Q383.2 179.6 384.3 180.3Q385.3 181.1 386.7 181.1L386.7 181.1Q387.7 181.1 388.6 180.7Q389.4 180.3 390.0 179.4Q390.5 178.6 390.7 177.5L390.7 177.5L396.4 177.5Q396.2 180.0 395.0 181.9Q393.8 183.8 391.7 184.8Q389.6 185.9 386.6 185.9ZM418.8 185.9L418.8 185.9Q415.5 185.9 413.1 184.5Q410.6 183.1 409.3 180.5Q408.0 178.0 408.0 174.7L408.0 174.7Q408.0 171.3 409.3 168.7Q410.6 166.2 413.1 164.8Q415.5 163.4 418.8 163.4L418.8 163.4Q422.1 163.4 424.5 164.8Q426.9 166.2 428.2 168.7Q429.5 171.3 429.5 174.7L429.5 174.7Q429.5 178.0 428.2 180.5Q426.9 183.1 424.5 184.5Q422.1 185.9 418.8 185.9ZM418.8 181.2L418.8 181.2Q420.3 181.2 421.3 180.4Q422.3 179.5 422.8 178.0Q423.4 176.5 423.4 174.6L423.4 174.6Q423.4 172.7 422.8 171.2Q422.3 169.7 421.3 168.9Q420.3 168.0 418.8 168.0L418.8 168.0Q417.3 168.0 416.2 168.9Q415.2 169.7 414.7 171.2Q414.2 172.7 414.2 174.6L414.2 174.6Q414.2 176.5 414.7 178.0Q415.2 179.5 416.2 180.4Q417.3 181.2 418.8 181.2ZM431.4 163.7L444.9 163.7L444.9 168.2L431.4 168.2L431.4 163.7ZM440.5 185.5L434.5 185.5L434.5 162.1Q434.5 159.7 435.4 158.1Q436.3 156.6 438.0 155.8Q439.6 155.0 441.6 155.0L441.6 155.0Q443.0 155.0 444.2 155.2Q445.4 155.4 445.9 155.6L445.9 155.6L444.8 160.2Q444.5 160.0 444.0 159.9Q443.4 159.8 442.9 159.8L442.9 159.8Q441.6 159.8 441.0 160.5Q440.5 161.1 440.5 162.2L440.5 162.2L440.5 185.5ZM475.5 156.4L481.6 156.4L481.6 185.5L476.3 185.5L463.7 167.2L463.5 167.2L463.5 185.5L457.3 185.5L457.3 156.4L462.7 156.4L475.3 174.7L475.5 174.7L475.5 156.4ZM492.5 185.9L492.5 185.9Q490.4 185.9 488.8 185.2Q487.1 184.4 486.2 183.0Q485.3 181.5 485.3 179.4L485.3 179.4Q485.3 177.6 485.9 176.3Q486.6 175.1 487.7 174.3Q488.9 173.6 490.4 173.2Q491.8 172.8 493.5 172.7L493.5 172.7Q495.4 172.5 496.5 172.3Q497.7 172.1 498.2 171.8Q498.7 171.4 498.7 170.7L498.7 170.7L498.7 170.6Q498.7 169.3 497.9 168.5Q497.0 167.8 495.5 167.8L495.5 167.8Q493.9 167.8 492.9 168.5Q491.9 169.2 491.6 170.3L491.6 170.3L486.0 169.8Q486.5 167.9 487.7 166.4Q489.0 164.9 490.9 164.2Q492.9 163.4 495.5 163.4L495.5 163.4Q497.3 163.4 499.0 163.8Q500.7 164.2 502.0 165.1Q503.3 166.0 504.0 167.4Q504.8 168.8 504.8 170.8L504.8 170.8L504.8 185.5L499.1 185.5L499.1 182.4L498.9 182.4Q498.4 183.5 497.5 184.2Q496.6 185.0 495.4 185.5Q494.1 185.9 492.5 185.9ZM494.2 181.7L494.2 181.7Q495.6 181.7 496.6 181.2Q497.6 180.6 498.2 179.7Q498.8 178.8 498.8 177.7L498.8 177.7L498.8 175.4Q498.5 175.5 498.0 175.7Q497.5 175.8 496.9 176.0Q496.3 176.1 495.7 176.2Q495.1 176.3 494.6 176.3L494.6 176.3Q493.5 176.5 492.7 176.8Q491.9 177.2 491.5 177.8Q491.0 178.3 491.0 179.2L491.0 179.2Q491.0 180.4 491.9 181.1Q492.8 181.7 494.2 181.7ZM522.3 163.7L528.7 163.7L521.1 185.5L514.3 185.5L506.6 163.7L513.0 163.7L517.6 179.3L517.8 179.3L522.3 163.7ZM537.1 185.9L537.1 185.9Q535.0 185.9 533.4 185.2Q531.7 184.4 530.8 183.0Q529.9 181.5 529.9 179.4L529.9 179.4Q529.9 177.6 530.5 176.3Q531.2 175.1 532.3 174.3Q533.5 173.6 535.0 173.2Q536.4 172.8 538.1 172.7L538.1 172.7Q540.0 172.5 541.1 172.3Q542.3 172.1 542.8 171.8Q543.3 171.4 543.3 170.7L543.3 170.7L543.3 170.6Q543.3 169.3 542.5 168.5Q541.6 167.8 540.1 167.8L540.1 167.8Q538.5 167.8 537.5 168.5Q536.5 169.2 536.2 170.3L536.2 170.3L530.6 169.8Q531.1 167.9 532.3 166.4Q533.6 164.9 535.5 164.2Q537.5 163.4 540.1 163.4L540.1 163.4Q541.9 163.4 543.6 163.8Q545.3 164.2 546.6 165.1Q547.9 166.0 548.6 167.4Q549.4 168.8 549.4 170.8L549.4 170.8L549.4 185.5L543.7 185.5L543.7 182.4L543.5 182.4Q543.0 183.5 542.1 184.2Q541.2 185.0 540.0 185.5Q538.7 185.9 537.1 185.9ZM538.8 181.7L538.8 181.7Q540.2 181.7 541.2 181.2Q542.2 180.6 542.8 179.7Q543.4 178.8 543.4 177.7L543.4 177.7L543.4 175.4Q543.1 175.5 542.6 175.7Q542.1 175.8 541.5 176.0Q540.9 176.1 540.3 176.2Q539.7 176.3 539.2 176.3L539.2 176.3Q538.1 176.5 537.3 176.8Q536.5 177.2 536.1 177.8Q535.6 178.3 535.6 179.2L535.6 179.2Q535.6 180.4 536.5 181.1Q537.4 181.7 538.8 181.7ZM553.8 156.4L559.8 156.4L559.8 185.5L553.8 185.5L553.8 156.4Z M235.8 242.0L229.7 242.0L229.7 212.9L241.2 212.9Q244.4 212.9 246.8 214.0Q249.1 215.2 250.3 217.3Q251.6 219.5 251.6 222.4L251.6 222.4Q251.6 225.3 250.3 227.3Q249.1 229.4 246.7 230.5Q244.3 231.6 241.0 231.6L241.0 231.6L233.3 231.6L233.3 226.7L240.0 226.7Q241.8 226.7 242.9 226.2Q244.1 225.7 244.7 224.8Q245.2 223.8 245.2 222.4L245.2 222.4Q245.2 220.9 244.7 219.9Q244.1 218.9 242.9 218.4Q241.7 217.9 240.0 217.9L240.0 217.9L235.8 217.9L235.8 242.0ZM238.7 228.7L245.4 228.7L252.6 242.0L245.8 242.0L238.7 228.7ZM261.7 242.4L261.7 242.4Q259.6 242.4 258.0 241.6Q256.4 240.9 255.4 239.5Q254.5 238.0 254.5 235.9L254.5 235.9Q254.5 234.0 255.1 232.8Q255.8 231.6 257.0 230.8Q258.1 230.1 259.6 229.7Q261.0 229.3 262.7 229.1L262.7 229.1Q264.6 228.9 265.7 228.8Q266.9 228.6 267.4 228.2Q267.9 227.9 267.9 227.2L267.9 227.2L267.9 227.1Q267.9 225.7 267.1 225.0Q266.3 224.3 264.7 224.3L264.7 224.3Q263.1 224.3 262.1 225.0Q261.1 225.7 260.8 226.8L260.8 226.8L255.2 226.3Q255.7 224.3 256.9 222.9Q258.2 221.4 260.1 220.6Q262.1 219.8 264.7 219.8L264.7 219.8Q266.6 219.8 268.2 220.3Q269.9 220.7 271.2 221.6Q272.5 222.5 273.2 223.9Q274.0 225.3 274.0 227.2L274.0 227.2L274.0 242.0L268.3 242.0L268.3 238.9L268.1 238.9Q267.6 239.9 266.7 240.7Q265.8 241.5 264.6 241.9Q263.3 242.4 261.7 242.4ZM263.4 238.2L263.4 238.2Q264.8 238.2 265.8 237.7Q266.8 237.1 267.4 236.2Q268.0 235.3 268.0 234.2L268.0 234.2L268.0 231.8Q267.7 232.0 267.2 232.2Q266.7 232.3 266.1 232.4Q265.5 232.6 264.9 232.7Q264.3 232.7 263.8 232.8L263.8 232.8Q262.7 233.0 261.9 233.3Q261.1 233.7 260.7 234.2Q260.2 234.8 260.2 235.7L260.2 235.7Q260.2 236.9 261.1 237.5Q262.1 238.2 263.4 238.2ZM291.5 220.1L297.9 220.1L290.3 242.0L283.5 242.0L275.9 220.1L282.2 220.1L286.8 235.7L287.0 235.7L291.5 220.1ZM306.8 242.0L300.7 242.0L300.7 220.1L306.8 220.1L306.8 242.0ZM303.7 217.3L303.7 217.3Q302.4 217.3 301.4 216.4Q300.5 215.5 300.5 214.3L300.5 214.3Q300.5 213.0 301.4 212.1Q302.4 211.2 303.7 211.2L303.7 211.2Q305.1 211.2 306.0 212.1Q307.0 213.0 307.0 214.3L307.0 214.3Q307.0 215.5 306.0 216.4Q305.1 217.3 303.7 217.3ZM320.8 231.1L316.7 235.7L316.8 228.4L317.6 228.4L324.6 220.1L331.6 220.1L322.2 231.1L320.8 231.1ZM317.3 242.0L311.3 242.0L311.3 212.9L317.3 212.9L317.3 242.0ZM332.0 242.0L324.9 242.0L318.5 232.4L322.5 228.2L332.0 242.0ZM340.4 242.4L340.4 242.4Q338.3 242.4 336.7 241.6Q335.1 240.9 334.1 239.5Q333.2 238.0 333.2 235.9L333.2 235.9Q333.2 234.0 333.9 232.8Q334.5 231.6 335.7 230.8Q336.8 230.1 338.3 229.7Q339.8 229.3 341.4 229.1L341.4 229.1Q343.3 228.9 344.5 228.8Q345.6 228.6 346.1 228.2Q346.7 227.9 346.7 227.2L346.7 227.2L346.7 227.1Q346.7 225.7 345.8 225.0Q345.0 224.3 343.4 224.3L343.4 224.3Q341.8 224.3 340.8 225.0Q339.9 225.7 339.6 226.8L339.6 226.8L334.0 226.3Q334.4 224.3 335.6 222.9Q336.9 221.4 338.9 220.6Q340.8 219.8 343.5 219.8L343.5 219.8Q345.3 219.8 346.9 220.3Q348.6 220.7 349.9 221.6Q351.2 222.5 352.0 223.9Q352.7 225.3 352.7 227.2L352.7 227.2L352.7 242.0L347.0 242.0L347.0 238.9L346.8 238.9Q346.3 239.9 345.4 240.7Q344.5 241.5 343.3 241.9Q342.1 242.4 340.4 242.4ZM342.2 238.2L342.2 238.2Q343.5 238.2 344.5 237.7Q345.5 237.1 346.1 236.2Q346.7 235.3 346.7 234.2L346.7 234.2L346.7 231.8Q346.4 232.0 345.9 232.2Q345.4 232.3 344.8 232.4Q344.2 232.6 343.6 232.7Q343.0 232.7 342.5 232.8L342.5 232.8Q341.4 233.0 340.6 233.3Q339.8 233.7 339.4 234.2Q339.0 234.8 339.0 235.7L339.0 235.7Q339.0 236.9 339.9 237.5Q340.8 238.2 342.2 238.2ZM363.2 229.3L363.2 229.3L363.2 242.0L357.1 242.0L357.1 220.1L362.9 220.1L362.9 224.0L363.1 224.0Q363.8 222.1 365.6 221.0Q367.3 219.8 369.7 219.8L369.7 219.8Q372.0 219.8 373.6 220.8Q375.3 221.8 376.3 223.7Q377.2 225.5 377.2 228.1L377.2 228.1L377.2 242.0L371.2 242.0L371.2 229.1Q371.2 227.1 370.1 226.0Q369.1 224.9 367.3 224.9L367.3 224.9Q366.1 224.9 365.1 225.4Q364.2 225.9 363.7 226.9Q363.2 227.9 363.2 229.3ZM380.1 220.1L393.3 220.1L393.3 224.7L380.1 224.7L380.1 220.1ZM383.1 236.0L383.1 214.9L389.2 214.9L389.2 235.2Q389.2 236.1 389.4 236.5Q389.7 237.0 390.1 237.2Q390.6 237.4 391.2 237.4L391.2 237.4Q391.6 237.4 392.0 237.3Q392.5 237.2 392.7 237.2L392.7 237.2L393.7 241.7Q393.2 241.8 392.4 242.0Q391.6 242.2 390.4 242.2L390.4 242.2Q388.2 242.3 386.5 241.7Q384.9 241.0 384.0 239.6Q383.1 238.2 383.1 236.0L383.1 236.0ZM400.4 242.3L400.4 242.3Q399.0 242.3 398.0 241.3Q397.0 240.3 397.0 238.9L397.0 238.9Q397.0 237.5 398.0 236.5Q399.0 235.5 400.4 235.5L400.4 235.5Q401.8 235.5 402.8 236.5Q403.8 237.5 403.8 238.9L403.8 238.9Q403.8 239.8 403.3 240.6Q402.9 241.4 402.1 241.9Q401.3 242.3 400.4 242.3ZM400.4 227.0L400.4 227.0Q399.0 227.0 398.0 226.0Q397.0 225.0 397.0 223.6L397.0 223.6Q397.0 222.2 398.0 221.2Q399.0 220.3 400.4 220.3L400.4 220.3Q401.8 220.3 402.8 221.2Q403.8 222.2 403.8 223.6L403.8 223.6Q403.8 224.6 403.3 225.4Q402.9 226.1 402.1 226.6Q401.3 227.0 400.4 227.0ZM443.2 223.0L443.2 223.0L437.0 223.0Q436.8 221.8 436.3 220.9Q435.7 219.9 434.9 219.3Q434.1 218.6 433.0 218.3Q432.0 217.9 430.7 217.9L430.7 217.9Q428.4 217.9 426.8 219.0Q425.1 220.1 424.2 222.3Q423.2 224.4 423.2 227.4L423.2 227.4Q423.2 230.5 424.2 232.6Q425.1 234.7 426.8 235.8Q428.5 236.9 430.7 236.9L430.7 236.9Q431.9 236.9 433.0 236.6Q434.0 236.3 434.8 235.6Q435.7 235.0 436.2 234.1Q436.8 233.2 437.0 232.0L437.0 232.0L443.2 232.0Q443.0 234.0 442.0 235.9Q441.0 237.7 439.4 239.2Q437.8 240.7 435.6 241.5Q433.4 242.3 430.6 242.3L430.6 242.3Q426.7 242.3 423.6 240.6Q420.5 238.8 418.8 235.5Q417.0 232.2 417.0 227.4L417.0 227.4Q417.0 222.6 418.8 219.3Q420.6 216.0 423.7 214.2Q426.7 212.5 430.6 212.5L430.6 212.5Q433.1 212.5 435.3 213.2Q437.4 213.9 439.1 215.2Q440.8 216.6 441.8 218.6Q442.9 220.5 443.2 223.0ZM453.2 229.3L453.2 229.3L453.2 242.0L447.2 242.0L447.2 212.9L453.1 212.9L453.1 224.0L453.3 224.0Q454.1 222.1 455.7 221.0Q457.3 219.8 459.8 219.8L459.8 219.8Q462.1 219.8 463.8 220.8Q465.5 221.8 466.4 223.7Q467.4 225.5 467.4 228.1L467.4 228.1L467.4 242.0L461.3 242.0L461.3 229.1Q461.3 227.1 460.3 226.0Q459.3 224.9 457.4 224.9L457.4 224.9Q456.2 224.9 455.3 225.4Q454.3 225.9 453.8 226.9Q453.2 227.9 453.2 229.3ZM478.0 242.4L478.0 242.4Q476.0 242.4 474.3 241.6Q472.7 240.9 471.7 239.5Q470.8 238.0 470.8 235.9L470.8 235.9Q470.8 234.0 471.5 232.8Q472.1 231.6 473.3 230.8Q474.4 230.1 475.9 229.7Q477.4 229.3 479.0 229.1L479.0 229.1Q480.9 228.9 482.1 228.8Q483.2 228.6 483.8 228.2Q484.3 227.9 484.3 227.2L484.3 227.2L484.3 227.1Q484.3 225.7 483.4 225.0Q482.6 224.3 481.0 224.3L481.0 224.3Q479.4 224.3 478.4 225.0Q477.5 225.7 477.2 226.8L477.2 226.8L471.6 226.3Q472.0 224.3 473.2 222.9Q474.5 221.4 476.5 220.6Q478.5 219.8 481.1 219.8L481.1 219.8Q482.9 219.8 484.6 220.3Q486.2 220.7 487.5 221.6Q488.8 222.5 489.6 223.9Q490.3 225.3 490.3 227.2L490.3 227.2L490.3 242.0L484.6 242.0L484.6 238.9L484.4 238.9Q483.9 239.9 483.0 240.7Q482.1 241.5 480.9 241.9Q479.7 242.4 478.0 242.4ZM479.8 238.2L479.8 238.2Q481.1 238.2 482.1 237.7Q483.2 237.1 483.7 236.2Q484.3 235.3 484.3 234.2L484.3 234.2L484.3 231.8Q484.0 232.0 483.6 232.2Q483.1 232.3 482.5 232.4Q481.8 232.6 481.2 232.7Q480.6 232.7 480.1 232.8L480.1 232.8Q479.1 233.0 478.3 233.3Q477.5 233.7 477.0 234.2Q476.6 234.8 476.6 235.7L476.6 235.7Q476.6 236.9 477.5 237.5Q478.4 238.2 479.8 238.2ZM493.2 220.1L506.3 220.1L506.3 224.7L493.2 224.7L493.2 220.1ZM496.2 236.0L496.2 214.9L502.2 214.9L502.2 235.2Q502.2 236.1 502.5 236.5Q502.7 237.0 503.2 237.2Q503.7 237.4 504.3 237.4L504.3 237.4Q504.7 237.4 505.1 237.3Q505.5 237.2 505.8 237.2L505.8 237.2L506.7 241.7Q506.3 241.8 505.4 242.0Q504.6 242.2 503.4 242.2L503.4 242.2Q501.3 242.3 499.6 241.7Q498.0 241.0 497.1 239.6Q496.2 238.2 496.2 236.0L496.2 236.0ZM516.5 242.0L510.5 242.0L510.5 212.9L516.6 212.9L516.6 223.8L516.7 223.8Q517.1 222.9 517.9 222.0Q518.7 221.1 519.9 220.5Q521.1 219.8 522.9 219.8L522.9 219.8Q525.3 219.8 527.4 221.1Q529.4 222.3 530.6 224.8Q531.8 227.3 531.8 231.1L531.8 231.1Q531.8 234.7 530.6 237.2Q529.4 239.7 527.4 241.0Q525.4 242.3 522.9 242.3L522.9 242.3Q521.2 242.3 519.9 241.7Q518.7 241.1 517.9 240.3Q517.2 239.4 516.7 238.5L516.7 238.5L516.5 238.5L516.5 242.0ZM516.4 231.0L516.4 231.0Q516.4 233.0 517.0 234.4Q517.5 235.9 518.5 236.7Q519.6 237.5 521.0 237.5L521.0 237.5Q522.5 237.5 523.5 236.7Q524.5 235.9 525.1 234.4Q525.6 232.9 525.6 231.0L525.6 231.0Q525.6 229.2 525.1 227.7Q524.6 226.3 523.5 225.5Q522.5 224.7 521.0 224.7L521.0 224.7Q519.5 224.7 518.5 225.4Q517.5 226.2 517.0 227.7Q516.4 229.1 516.4 231.0ZM545.3 242.4L545.3 242.4Q542.0 242.4 539.6 241.0Q537.2 239.6 535.9 237.0Q534.6 234.5 534.6 231.1L534.6 231.1Q534.6 227.7 535.9 225.2Q537.2 222.7 539.6 221.3Q542.0 219.8 545.3 219.8L545.3 219.8Q548.7 219.8 551.1 221.3Q553.5 222.7 554.8 225.2Q556.1 227.7 556.1 231.1L556.1 231.1Q556.1 234.5 554.8 237.0Q553.5 239.6 551.1 241.0Q548.7 242.4 545.3 242.4ZM545.4 237.7L545.4 237.7Q546.9 237.7 547.9 236.8Q548.9 236.0 549.4 234.5Q549.9 233.0 549.9 231.1L549.9 231.1Q549.9 229.2 549.4 227.7Q548.9 226.2 547.9 225.3Q546.9 224.5 545.4 224.5L545.4 224.5Q543.9 224.5 542.8 225.3Q541.8 226.2 541.3 227.7Q540.8 229.2 540.8 231.1L540.8 231.1Q540.8 233.0 541.3 234.5Q541.8 236.0 542.8 236.8Q543.9 237.7 545.4 237.7ZM558.2 220.1L571.3 220.1L571.3 224.7L558.2 224.7L558.2 220.1ZM561.2 236.0L561.2 214.9L567.2 214.9L567.2 235.2Q567.2 236.1 567.5 236.5Q567.7 237.0 568.2 237.2Q568.6 237.4 569.3 237.4L569.3 237.4Q569.7 237.4 570.1 237.3Q570.5 237.2 570.8 237.2L570.8 237.2L571.7 241.7Q571.3 241.8 570.4 242.0Q569.6 242.2 568.4 242.2L568.4 242.2Q566.2 242.3 564.6 241.7Q563.0 241.0 562.1 239.6Q561.1 238.2 561.2 236.0L561.2 236.0Z "/></svg>